<?xml version="1.0" encoding="UTF-8"?>
<!--
  Greenstreet Finance — themed avatar av3
  Original: Latina woman, 30s, navy blazer, white blouse, sage background.
  Theme: rainforest tile, mint head, lemon accent (warm growth).
-->
<svg xmlns="http://www.w3.org/2000/svg" viewBox="0 0 1024 1024" role="img" aria-label="Avatar 3">
  <title>Avatar 3 — Warm growth</title>
  <rect width="1024" height="1024" fill="#006565"/>
  <!-- lemon corner -->
  <path d="M1024 0 L1024 280 L744 0 Z" fill="#d8d958"/>
  <!-- mint corner -->
  <path d="M0 1024 L0 760 L264 1024 Z" fill="#e8e9bf"/>
  <!-- shoulders in mint -->
  <path d="M200 1024 C 200 760, 320 700, 512 700 C 704 700, 824 760, 824 1024 Z" fill="#e8e9bf"/>
  <!-- blazer lapel in dark teal -->
  <path d="M420 1024 L460 820 L512 880 L564 820 L604 1024 Z" fill="#004041"/>
  <!-- neck -->
  <rect x="476" y="600" width="72" height="120" fill="#eeefd3"/>
  <!-- head silhouette in pistachio -->
  <circle cx="512" cy="540" r="180" fill="#eeefd3"/>
  <!-- hair shape in dark teal -->
  <path d="M340 540 C 340 380, 420 300, 512 300 C 604 300, 684 380, 684 540 C 680 580, 660 612, 640 632 C 660 540, 620 460, 560 444 C 540 440, 520 446, 510 458 C 490 444, 460 442, 440 460 C 410 488, 388 540, 388 612 C 372 596, 344 580, 340 540 Z" fill="#004041"/>
  <!-- subtle lemon shoulder pin -->
  <circle cx="512" cy="800" r="14" fill="#d8d958"/>
</svg>
