<svg xmlns="http://www.w3.org/2000/svg" height="1664" preserveAspectRatio="none" style="display: block;" version="1.1" viewBox="0 0 2560 1664" width="2560">
<path d="M 0 0 L 2560 0 L 2560 1664 L 0 1664 L 0 0 z" fill="rgb(255,255,255)" transform="translate(0,0)"></path>
<path d="M 626.143 502.398 C 635.16 501.879 644.193 501.667 653.225 501.765 C 797.997 502.455 928.838 619.067 944.163 763.282 C 946.744 787.577 945.926 813.286 945.928 837.785 L 945.907 931.605 L 945.694 1162.17 C 907.929 1162.01 870.163 1162.1 832.399 1162.44 C 833.179 1130.49 832.602 1095.81 832.555 1063.74 L 832.59 909.417 L 832.468 821.463 C 832.407 799.952 833.133 778.852 830.022 757.493 C 818.601 679.078 750.19 625.896 675.041 613.298 C 665.936 611.788 656.723 611.023 647.494 611.01 C 597.725 610.912 550.019 630.894 515.176 666.432 C 489.985 691.453 472.429 723.122 464.558 757.744 C 458.522 783.975 459.548 808.379 459.588 835.043 L 459.702 905.379 L 459.647 1162.19 L 350.763 1162.12 L 350.663 915.723 L 350.539 831.971 C 350.51 797.525 349.577 766.939 357.191 733.032 C 367.515 687.086 388.766 644.308 419.143 608.323 C 472.017 545.011 544.535 509.656 626.143 502.398 z" fill="rgb(22,50,65)" transform="translate(0,0)"></path>
<path d="M 525.096 684.819 L 766.658 684.799 C 767.332 714.159 766.891 744.664 766.837 774.109 L 524.925 774.039 L 525.096 684.819 z" fill="rgb(190,156,102)" transform="translate(0,0)"></path>
<path d="M 1794.43 620.274 C 1819.04 617.922 1841.96 619.695 1863.68 633.63 C 1889.55 650.218 1895.96 686.667 1878.89 711.953 C 1866.97 729.604 1847.59 735.358 1827.19 738.889 C 1785.76 744.195 1733.79 731.324 1732.41 681.579 C 1731.33 642.637 1760.15 625.51 1794.43 620.274 z" fill="rgb(22,50,65)" transform="translate(0,0)"></path>
<path d="M 1800.86 639.29 C 1825.39 637.906 1860.15 642.649 1866.26 671.799 C 1868.42 681.63 1866.4 691.914 1860.7 700.209 C 1852.18 712.688 1836 717.518 1821.93 719.946 C 1795.86 724.56 1757.61 714.411 1754.04 683.486 C 1752.91 674.08 1755.57 664.612 1761.43 657.166 C 1771.03 644.796 1786.22 641.085 1800.86 639.29 z" fill="rgb(255,255,255)" transform="translate(0,0)"></path>
<path d="M 1035.82 790.342 C 1053.91 789.796 1073.15 790.419 1091.4 790.164 C 1105.09 790.456 1118.5 789.197 1132.12 791.11 C 1160.07 795.033 1167.73 829.768 1150.58 849.048 C 1141.33 859.448 1130.19 860.35 1117.17 861.045 C 1128.03 872.981 1151.99 898.659 1164.95 906.222 L 1152.25 906.581 L 1133.78 906.585 C 1126.76 896.471 1100.79 870.696 1091.26 860.828 L 1059.58 860.988 C 1059.51 870.742 1057.73 898.273 1062.24 905.866 C 1059.78 907.823 1041.07 907.066 1036.87 906.673 C 1036.17 904.676 1036.52 903.641 1037.37 901.697 C 1037.64 901.077 1038.02 900.509 1038.29 899.888 C 1039.79 896.418 1039.57 799.803 1037.41 794.292 C 1036.9 792.971 1036.37 791.651 1035.82 790.342 z" fill="rgb(22,50,65)" transform="translate(0,0)"></path>
<path d="M 1059.47 810.399 L 1104.28 810.65 C 1110.2 810.661 1118.85 810.048 1124.51 810.817 C 1137.31 812.557 1141.55 826.567 1133.32 835.832 L 1132.36 836.934 C 1123.68 841.388 1120.45 841.04 1110.81 841.067 C 1093.71 841.115 1076.59 840.92 1059.49 840.948 L 1059.47 810.399 z" fill="rgb(255,255,255)" transform="translate(0,0)"></path>
<path d="M 1676.73 789.693 L 1706.44 789.555 C 1720.19 812.557 1758.34 894.351 1772.36 906.655 C 1766.46 906.683 1749.92 907.76 1745.37 906.591 C 1743.73 905.441 1737.2 889.314 1733.88 883.539 C 1726.47 883.282 1718.7 883.293 1711.25 883.188 C 1691.66 883.01 1672.06 883.123 1652.47 883.526 C 1650.69 886.866 1648.15 891.018 1646.84 894.483 C 1645.18 898.891 1645.92 902.137 1643.72 906.509 C 1640.52 907.956 1619.3 907.073 1614.12 907.039 C 1624.35 897.79 1637.74 866.694 1644.9 852.499 C 1655.1 832.314 1667.8 810.177 1676.73 789.693 z" fill="rgb(22,50,65)" transform="translate(0,0)"></path>
<path d="M 1692.13 807.49 C 1696.64 811.107 1719.17 856.576 1723.26 864.682 L 1695.43 864.872 C 1684.57 864.969 1673.72 864.848 1662.86 864.509 C 1668.06 851.654 1684.98 820.479 1692.13 807.49 z" fill="rgb(255,255,255)" transform="translate(0,0)"></path>
<path d="M 1468.23 958.49 L 1482.96 958.197 C 1503.74 993.89 1520.29 1033.33 1541.71 1068.79 C 1543.1 1071.08 1546.92 1073.69 1549.17 1075.23 C 1543.04 1075.19 1525.19 1076.08 1521.25 1075.47 C 1517.81 1072.46 1518.69 1069.79 1516.87 1065.47 C 1514.97 1060.98 1512.57 1056.79 1510.13 1052.57 L 1472.83 1052.72 C 1458.03 1052.47 1443.24 1052.4 1428.44 1052.52 C 1425.75 1057.44 1421.87 1064.01 1419.63 1069.21 C 1418.87 1071 1420.35 1072.6 1421.4 1074.42 C 1418.86 1076.07 1394.15 1075.44 1389.41 1075.42 C 1391.65 1073.86 1396.05 1070.96 1397.37 1068.59 C 1413.81 1039.24 1427.64 1008.33 1443.34 978.552 C 1446.78 972.022 1450.17 965.498 1453.2 958.772 L 1468.23 958.49 z" fill="rgb(22,50,65)" transform="translate(0,0)"></path>
<path d="M 1468.15 975.743 C 1473.18 980.416 1495.01 1024.99 1499.22 1033.7 C 1490.56 1033.77 1481.91 1033.78 1473.25 1033.73 C 1461.83 1033.64 1450.4 1033.61 1438.98 1033.64 C 1447.99 1015.54 1458.04 992.877 1468.15 975.743 z" fill="rgb(255,255,255)" transform="translate(0,0)"></path>
<path d="M 1519.45 619.402 C 1545.53 618.279 1559.17 621.952 1583.54 629.233 C 1588.12 630.603 1590.39 628.765 1593.81 630.988 C 1593.95 635.04 1583.8 652.445 1580.76 655.841 L 1579.31 655.585 C 1578.66 653.787 1578.07 651.57 1576.91 650.043 C 1571.68 643.102 1550.11 640.086 1541.98 639.373 C 1528.04 638.153 1505.06 637.767 1493.85 647.947 C 1491.97 649.66 1491.05 651.506 1491.11 654.112 C 1491.62 674.322 1568.21 662.29 1590.5 683.418 C 1595.99 688.622 1598.09 695.195 1598.22 702.573 C 1598.38 711.642 1594.73 719.363 1588.41 725.687 C 1574.36 739.746 1554.36 740.215 1535.75 740.093 C 1515.02 740.262 1495.02 734.056 1476.51 725.347 C 1472.59 723.507 1469.4 722.409 1465.12 721.738 C 1468.25 716.482 1475.67 703.031 1479.95 700.001 C 1480.94 701.753 1482.03 703.635 1483.45 705.082 C 1496.65 718.487 1526.07 722.145 1543.74 721.426 C 1552.64 721.064 1567.48 719.979 1573.69 712.649 C 1575.68 710.303 1576.72 707.192 1576.27 704.12 C 1573.39 684.078 1503.49 695.436 1480.36 677.66 C 1474.66 673.277 1470.15 664.382 1469.36 657.377 C 1468.56 650.308 1471.22 643.393 1475.64 637.943 C 1486.15 624.971 1503.7 621.113 1519.45 619.402 z" fill="rgb(22,50,65)" transform="translate(0,0)"></path>
<path d="M 1565.18 958.934 L 1598.66 958.893 C 1624.23 987.74 1652 1020.27 1678.36 1048.07 C 1678.24 1023.36 1679.79 983.383 1677.92 960.11 C 1681.01 958.423 1698.21 958.887 1702.25 959.648 C 1698.53 981.533 1702.03 1010.19 1700.82 1032.87 C 1700.36 1041.39 1699.76 1068.31 1703.27 1074.48 C 1701.23 1076.13 1698.87 1075.59 1695.74 1075.67 L 1675.58 1075.61 C 1668.3 1070 1657.67 1056.7 1651.13 1049.68 C 1630.93 1027.99 1611.11 1002.07 1589.95 981.58 C 1590.24 1009.32 1589.58 1037.14 1589.92 1064.89 C 1590 1071.75 1591.58 1070.82 1592.22 1075.38 C 1588.15 1075.86 1570.68 1076.53 1567.36 1075.38 C 1570.22 1059.6 1567.99 1031.72 1568.53 1014.61 C 1568.39 998.459 1569.11 982.182 1568.18 966.061 C 1568.05 963.666 1566.41 960.916 1565.18 958.934 z" fill="rgb(22,50,65)" transform="translate(0,0)"></path>
<path d="M 1456.18 879.7 C 1456.46 857.79 1457.39 818.06 1455.2 795.292 C 1455.2 795.341 1454.45 793.731 1454.31 791.418 C 1457.38 789.8 1477.99 789.3 1480.5 791.891 C 1479.79 792.866 1479.76 792.813 1479.21 794.098 C 1477.04 799.139 1477.03 895.792 1480.13 903.539 C 1480.23 903.777 1480.34 904.009 1480.43 904.248 C 1480.6 904.666 1480.75 905.09 1480.91 905.508 C 1481.02 905.769 1481.13 906.027 1481.24 906.286 L 1479.25 906.755 L 1452.17 906.605 C 1424.88 880.229 1396.26 839.931 1367.63 812.997 C 1367.42 834.521 1365.44 887.868 1369.7 905.96 L 1368.37 906.816 C 1363.64 906.907 1347.4 907.852 1344.52 905.445 C 1347.89 896.93 1347.25 797.82 1343.37 790.381 L 1376.63 790.282 C 1402.56 820.605 1429.08 850.417 1456.18 879.7 z" fill="rgb(22,50,65)" transform="translate(0,0)"></path>
<path d="M 1235.03 959.198 C 1243.55 958.444 1259.5 958.914 1268.59 958.926 C 1293.58 989.151 1321.53 1020.67 1347.71 1049.82 L 1348.15 969.991 C 1348.14 960.613 1345.62 964 1345.89 959.642 C 1351.54 958.431 1364.12 959.043 1370.39 959.144 C 1367.59 990.939 1371.47 1028.49 1369.62 1060.84 C 1369.39 1064.77 1371.92 1072.7 1370.89 1075.59 L 1367.25 1075.76 C 1359.28 1075.74 1351.31 1075.6 1343.34 1075.33 C 1332.26 1064.68 1317.79 1046.8 1307.43 1034.64 C 1291.95 1016.15 1275.81 998.227 1259.04 980.898 L 1258.84 1058.83 C 1258.86 1062.85 1260.77 1074.95 1260.71 1075.54 C 1255.39 1076.3 1240.94 1076 1235.64 1074.95 C 1239.4 1067.44 1239.16 966.699 1235.03 959.198 z" fill="rgb(22,50,65)" transform="translate(0,0)"></path>
<path d="M 1913.76 621.136 L 1947.07 621.523 L 1995.8 676.297 C 2005.57 687.309 2017.01 700.665 2027.5 710.631 C 2027.27 697.568 2029.99 631.498 2025.72 623.935 C 2025.52 623.567 2025.3 623.207 2025.08 622.842 C 2028.51 620.607 2048.22 620.973 2051.58 622.641 C 2050.77 624.827 2049.6 629.373 2049.66 632.136 C 2050.4 666.03 2047.97 701.777 2050.98 735.343 C 2051.13 737.096 2051.61 734.877 2050.78 737.188 L 2046.25 737.28 L 2023.57 737.125 C 2014.16 728.204 2005.26 717.045 1996.43 707.406 C 1977.06 686.253 1958.11 663.19 1938.25 642.61 C 1938.76 665.212 1937.96 708.455 1938.99 732.732 C 1938.99 732.651 1940.54 734.973 1940.7 735.196 L 1941.61 736.484 C 1938.45 737.706 1918.15 738.031 1915.07 736.257 L 1915.28 735.541 C 1917.51 727.79 1917.18 721.041 1917.15 713.053 C 1917.02 684.771 1917.55 656.417 1916.74 628.153 C 1916.67 625.705 1915.06 623.134 1913.76 621.136 z" fill="rgb(22,50,65)" transform="translate(0,0)"></path>
<path d="M 1307.68 788.461 L 1309.04 787.951 L 1310.47 789.036 C 1311.41 796.045 1310.84 807.392 1310.7 814.776 C 1299.56 808.688 1283.91 810.403 1271.2 810.418 L 1218.17 810.463 L 1218.19 837.852 C 1234.22 837.937 1271.62 840.178 1284.56 834.276 L 1284.6 858.862 C 1274.91 855.969 1231.64 857.134 1218.29 857.199 L 1218.25 886.807 L 1273.75 886.72 C 1282.79 886.715 1291.82 886.557 1300.86 886.246 C 1304.44 886.14 1309.7 885.683 1312.33 888.17 C 1312.52 892.88 1312.71 904.631 1311.39 908.964 C 1303.13 906.605 1299.59 906.703 1291.43 906.69 C 1260.1 906.642 1228.4 907.188 1197.1 906.612 C 1197.67 901.297 1197.74 895.085 1197.68 889.702 C 1197.37 860.325 1198.09 830.836 1197.5 801.502 C 1197.44 798.203 1195.65 793.836 1196.61 790.824 C 1212.41 785.151 1291.4 795.789 1307.68 788.461 z" fill="rgb(190,156,102)" transform="translate(0,0)"></path>
<path d="M 2198.53 619.269 C 2198.95 619.231 2199.92 619.571 2200.41 619.706 C 2201.41 624.15 2202.11 641.238 2199.36 644.566 C 2191.73 639.258 2175.24 641.007 2165.46 641.02 L 2109.46 641.01 L 2109.52 668.256 C 2127.93 668.343 2156.88 670.083 2173.92 666.294 C 2175.89 669.26 2175.05 686.323 2174.99 691.063 C 2160.01 686.007 2127.21 687.928 2109.67 687.841 L 2109.57 717.864 L 2176.55 717.904 C 2188.13 718.062 2192.59 718.684 2203.26 714.899 C 2203.32 721.6 2203.75 732.145 2202.7 738.456 L 2201.4 739.115 C 2187.05 736.584 2171.83 737.69 2157.28 737.559 C 2133.78 737.346 2109.56 738.171 2086.14 737.165 L 2085.56 735.414 L 2086.16 734.178 C 2086.73 732.975 2088.7 729.74 2088.62 728.716 C 2085.99 695.379 2091.9 654.279 2086.77 622.064 C 2107.54 615.65 2177.63 627.078 2198.53 619.269 z" fill="rgb(22,50,65)" transform="translate(0,0)"></path>
<path d="M 1307.67 619.41 C 1309.45 619.233 1308.64 619.01 1310.09 620.103 C 1311.03 626.232 1310.6 638.814 1310.56 645.459 C 1298.81 639.153 1283.93 640.912 1270.7 640.929 L 1218.46 641.022 L 1218.55 668.128 C 1234.1 667.905 1272.56 670.739 1283.94 664.786 L 1284.02 691.317 C 1271.79 685.6 1233.6 687.654 1218.41 687.718 L 1218.43 717.658 L 1283.01 717.739 C 1295.16 717.898 1300.78 718.73 1312.34 714.777 C 1312.41 722.285 1312.78 731.807 1311.84 739.086 L 1310.45 739.785 C 1292.51 732.608 1202.9 742.49 1196.4 736.131 C 1197.21 734.09 1198.01 731.344 1197.99 729.122 C 1197.67 696.214 1197.37 663.281 1198.08 630.377 C 1198.13 628.477 1196.88 625.932 1196.13 624.198 L 1195.81 623.468 C 1196.03 622.974 1196.06 622.332 1196.48 621.984 C 1201.23 618.015 1294.9 625.668 1307.07 619.731 C 1307.27 619.632 1307.47 619.517 1307.67 619.41 z" fill="rgb(22,50,65)" transform="translate(0,0)"></path>
<path d="M 2013.86 956.304 C 2016.22 958.154 2014.85 977.441 2013.94 980.709 C 2009.58 980.318 2000.03 978.423 1996.72 978.454 C 1972.33 978.677 1947.62 978.663 1923.26 978.72 L 1923.12 1006.21 C 1941.92 1005.7 1972.48 1009.77 1988.84 1001.88 C 1988.63 1010.81 1988.76 1020.06 1988.77 1029.02 C 1975.12 1022.96 1939.79 1025.24 1923.07 1025.37 L 1923.06 1055.57 L 1989.85 1055.73 C 1998.47 1055.85 2007.26 1056.72 2015.45 1053.75 L 2016.61 1054.86 C 2016.71 1059.88 2017.56 1073.94 2015.24 1077.45 C 1992.2 1072.7 1952.04 1076.37 1927.11 1075.31 C 1919.41 1074.98 1906.52 1076.49 1899.65 1074.56 C 1900.48 1073.36 1902.08 1071.11 1902.08 1069.58 C 1902.18 1043.11 1901.94 1016.59 1902.02 990.102 C 1902.05 979.783 1901.7 970.522 1900.75 960.255 C 1907.23 955.728 1996.25 963.101 2013.86 956.304 z" fill="rgb(22,50,65)" transform="translate(0,0)"></path>
<path d="M 1060.55 674.738 C 1075.54 663.866 1108.38 639.175 1124.18 625.871 C 1123.44 626.49 1126.29 621.907 1126.18 622.088 C 1134.19 620.624 1158.62 621.549 1167.62 621.671 C 1151.6 630.585 1117.99 657.176 1101.78 669.386 C 1115.73 683.244 1129.78 697.007 1143.91 710.675 C 1151.13 717.686 1162.21 729.028 1169.78 734.699 C 1171.01 734.96 1171.18 734.911 1172.19 735.532 C 1172.3 735.8 1172.42 736.068 1172.53 736.336 C 1171.52 738.215 1144.51 737.474 1141.36 736.489 C 1123.04 718.077 1102.49 699.925 1083.59 681.616 L 1059.89 700.297 C 1059.87 708.781 1058.38 730.198 1061.94 736.498 L 1060.71 737.259 C 1055.65 737.407 1040.76 737.963 1036.4 736.742 C 1042.37 724.148 1036.06 651.838 1038.44 632.709 C 1038.62 631.251 1036.81 624.765 1036.66 622.179 C 1041.78 621.278 1055.75 621.013 1060.71 622.43 C 1062.8 626.009 1060.52 627.577 1060.4 632.317 C 1060.04 646.167 1060.4 660.922 1060.55 674.738 z" fill="rgb(22,50,65)" transform="translate(0,0)"></path>
<path d="M 1169.78 734.699 C 1171.01 734.96 1171.18 734.911 1172.19 735.532 C 1172.3 735.8 1172.42 736.068 1172.53 736.336 C 1171.52 738.215 1144.51 737.474 1141.36 736.489 C 1150.42 734.721 1163.67 737.584 1169.78 734.699 z" fill="rgb(45,63,74)" transform="translate(0,0)"></path>
<path d="M 1796.47 957.301 C 1825.36 955.518 1838.35 961.487 1863.41 972.676 C 1866.65 974.123 1867.8 972.516 1870.08 975.738 C 1869.17 980.051 1861.02 993.407 1857.82 996.589 C 1855.07 993.886 1848.64 987.554 1845.3 985.884 C 1820.64 973.575 1771.61 971.271 1755.73 999.176 C 1750.89 1007.84 1749.67 1018.07 1752.33 1027.63 C 1761.98 1062.03 1806.92 1062.69 1834.96 1054.78 C 1851.91 1049.46 1847.79 1048.3 1859.84 1041.18 C 1865.42 1042.35 1871.65 1053.73 1875.24 1059.02 C 1871.55 1060.3 1866.92 1062.25 1863.52 1064.13 C 1831.83 1081.7 1781.61 1085.05 1751.23 1061.87 C 1739.61 1053.15 1732.03 1040.08 1730.21 1025.67 C 1724.69 983.131 1758.82 961.862 1796.47 957.301 z" fill="rgb(22,50,65)" transform="translate(0,0)"></path>
<path d="M 1148.2 956.028 C 1149.11 956.145 1149.25 956.45 1150.15 957.067 C 1151.01 962.753 1150.5 976.082 1150.42 982.38 C 1139.84 977.039 1123.48 978.585 1111.45 978.615 L 1059.23 978.826 L 1059.22 1005.7 C 1074.02 1005.74 1112.73 1007.69 1124.4 1002.69 C 1125.54 1008.03 1125.03 1022.84 1124.99 1029.01 C 1111.61 1021.58 1076.04 1024.85 1059.41 1024.92 C 1058.47 1037.55 1059.3 1053.12 1059.17 1065.97 C 1059.16 1067.46 1060.66 1071.71 1060.95 1075.16 C 1056.15 1076.32 1042.12 1075.28 1037.14 1074.64 C 1035.1 1048.87 1043.29 982.885 1036.67 960.648 C 1044.23 954.367 1132.94 964.126 1148.2 956.028 z" fill="rgb(22,50,65)" transform="translate(0,0)"></path>
<path d="M 1323.76 621.374 C 1329.34 620.786 1353.36 620.859 1358.6 621.486 C 1360.98 625.113 1360.45 629.661 1360.92 630.261 C 1373.33 646.088 1385.59 661.999 1397.8 677.983 C 1410.31 662.414 1422.58 646.487 1434.76 630.65 C 1438.25 626.112 1435.03 625.277 1437.48 622.057 C 1444.14 620.936 1463.13 621.595 1470.81 621.698 C 1463.59 628.43 1449.16 647.142 1442.27 655.672 L 1409.67 696.255 C 1409.63 704.617 1408.12 730.125 1411.98 736.089 L 1410.95 737.24 C 1404.38 737.733 1391.33 737.694 1384.83 737.002 L 1384.13 736.007 C 1387.54 728.403 1386.11 705.824 1386.01 696.158 C 1366.92 671.415 1347.08 643.604 1324.67 622.25 L 1323.76 621.374 z" fill="rgb(22,50,65)" transform="translate(0,0)"></path>
<path d="M 1505.49 787.256 C 1520.3 791.799 1617.67 792.564 1631.18 786.953 C 1631.2 793.242 1631.64 807.749 1630.51 813.301 C 1617.83 808.806 1593.06 810.637 1578.33 810.69 C 1578.6 825.833 1578.37 841.557 1578.36 856.747 C 1578.3 867.661 1576.42 897.16 1580.96 905.526 C 1578.96 907.827 1557.12 907.589 1554.83 905.545 C 1559.02 899.442 1557.19 881.987 1557.18 873.585 L 1557.21 810.222 C 1541.06 810.462 1519.36 807.366 1505.84 814.237 C 1505.42 805.449 1505.54 796.094 1505.49 787.256 z" fill="rgb(22,50,65)" transform="translate(0,0)"></path>
<path d="M 1603.97 618.256 C 1618.07 623.23 1636.59 621.044 1651.65 621.36 C 1671.06 621.768 1690.72 621.27 1710.14 621.423 C 1716.12 621.47 1723.85 619.676 1729.21 620.105 C 1730.51 624.334 1731.85 641.311 1729.33 644.446 C 1715.79 638.997 1693.2 640.954 1677.79 640.975 L 1677.63 687.212 C 1677.63 698.239 1675.94 728.175 1680.3 736.711 C 1676.51 738.233 1657.01 738.02 1654.34 736.424 L 1654.73 735.21 C 1654.93 734.603 1655.09 733.985 1655.32 733.39 C 1658.73 724.437 1656.6 654.614 1656.57 640.963 C 1638.65 641.218 1620.21 638.319 1604.19 644.988 C 1604.24 636.077 1604.17 627.165 1603.97 618.256 z" fill="rgb(22,50,65)" transform="translate(0,0)"></path>
<path d="M 1790.45 790.38 C 1795.24 790.291 1813.53 789.282 1816.47 791.593 C 1812.43 798.314 1814.07 814.562 1814.08 823.079 L 1814.16 886.761 C 1834.24 886.534 1891.49 889.025 1906.68 884.133 L 1906.68 908.668 C 1906.17 909.224 1905.4 909.368 1904.56 909.694 C 1891.02 902.384 1814.72 909.81 1791.54 906.439 L 1790.68 905.206 C 1793.47 901.802 1793.7 892.515 1793.11 888.443 C 1790.3 869.297 1797.25 805.595 1790.45 790.38 z" fill="rgb(22,50,65)" transform="translate(0,0)"></path>
<path d="M 1172.99 958.849 C 1178.21 958.777 1196.33 957.666 1199.49 960.379 C 1196.71 965.222 1197.36 974.94 1197.35 980.775 C 1197.31 1010.09 1196.61 1039.46 1197.25 1068.76 C 1197.31 1071.34 1198.62 1073.47 1200.07 1075.5 C 1192.77 1075.67 1181.66 1076.28 1174.7 1075.41 L 1173.7 1073.62 C 1174.04 1072.04 1176.2 1066.13 1176.21 1065.93 C 1176.42 1058.22 1175.98 1050.45 1175.99 1042.67 L 1176.16 992.559 C 1176.19 983.559 1177.76 965.912 1172.99 958.849 z" fill="rgb(22,50,65)" transform="translate(0,0)"></path>
<metadata><recraft-signature>{"signed_by": "recraft", "signature_b64": "BHtMZPp38pUyQwCQbmGrsIF9huDH8i/rFFl3WL6gm7yeDoSeZL9r6eiMu/HjCgb2s1FNFbqJWepXYvZsstCeAA==", "signing_algo": "Ed25519", "generation_timestamp": 1782307099, "identifier": "0c9e1399-8f5a-471f-b6ef-6c4c76e751c7"}</recraft-signature></metadata></svg>